# xmcd
# 
# Track frame offsets:
#     150
#     24081
#     52576
#     73512
#     93462
#     115314
#     130371
#     148865
#     162197
#     184627
#     196843
#     224170
# 
# Disc length: 3439
# 
# Revision: 2
# Processed by: cddbd v1.5.2PL0 Copyright (c) Steve Scherf et al.
# Submitted via: BonkEnc v1.0.8
# 
DISCID=a80d6d0c
DTITLE=Kataklysm - Live in Deutschland - The Devastation Begins
DYEAR=2007
DGENRE=Death Metal
TTITLE0=Like Angels Weeping (The Dark)
TTITLE1=Where The Enemy Sleeps
TTITLE2=The Resurrected
TTITLE3=Let Them Burn
TTITLE4=As The Glorious Weep
TTITLE5=As I Slither
TTITLE6=Manipulator Of Souls
TTITLE7=The Ambassador Of Pain
TTITLE8=Crippled and Broken
TTITLE9=In Shadows and Dust
TTITLE10=Face The Face Of War
TTITLE11=The Road To Devastation
EXTD=
EXTT0=
EXTT1=
EXTT2=
EXTT3=
EXTT4=
EXTT5=
EXTT6=
EXTT7=
EXTT8=
EXTT9=
EXTT10=
EXTT11=
PLAYORDER=
